<svg xmlns="http://www.w3.org/2000/svg" xmlns:xlink="http://www.w3.org/1999/xlink" width="500" zoomAndPan="magnify" viewBox="0 0 375 374.999991" height="500" preserveAspectRatio="xMidYMid meet" version="1.0"><defs><g/></defs><g fill="#000000" fill-opacity="1"><g transform="translate(166.030467, 267.133319)"><g><path d="M 18.890625 -42.234375 C 13.390625 -35.035156 10.640625 -27.253906 10.640625 -18.890625 C 10.640625 -8.941406 14.820312 -1.21875 23.1875 4.28125 C 28.050781 7.5625 33.578125 9.203125 39.765625 9.203125 C 45.960938 9.203125 51.335938 7.988281 55.890625 5.5625 C 64.472656 1.113281 69.289062 -6.347656 70.34375 -16.828125 C 70.445312 -17.566406 70.5 -18.3125 70.5 -19.0625 C 70.5 -22.976562 69.414062 -27.210938 67.25 -31.765625 C 65.082031 -36.316406 61.5625 -40.492188 56.6875 -44.296875 L 28.109375 -66.859375 C 21.859375 -71.722656 18.734375 -78.019531 18.734375 -85.75 C 18.734375 -93.476562 21.222656 -100.015625 26.203125 -105.359375 C 31.179688 -110.703125 37.90625 -113.375 46.375 -113.375 C 50.601562 -113.375 55.207031 -112.847656 60.1875 -111.796875 L 66.53125 -111.796875 L 66.859375 -92.265625 L 65.265625 -92.265625 C 65.160156 -97.347656 63.332031 -101.34375 59.78125 -104.25 C 56.238281 -107.15625 51.789062 -108.609375 46.4375 -108.609375 C 41.09375 -108.609375 36.617188 -106.835938 33.015625 -103.296875 C 29.421875 -99.753906 27.625 -95.203125 27.625 -89.640625 C 27.625 -84.078125 29.957031 -79.445312 34.625 -75.75 L 64 -52.5625 C 75.644531 -43.351562 81.46875 -32.238281 81.46875 -19.21875 C 81.46875 -9.476562 77.601562 -1.113281 69.875 5.875 C 63.195312 11.90625 54.300781 14.921875 43.1875 14.921875 C 36.414062 14.921875 30.382812 13.648438 25.09375 11.109375 C 15.132812 6.453125 9.148438 -1.484375 7.140625 -12.703125 C 6.828125 -14.398438 6.671875 -16.546875 6.671875 -19.140625 C 6.671875 -21.734375 7.410156 -25.273438 8.890625 -29.765625 C 10.367188 -34.265625 13.226562 -38.789062 17.46875 -43.34375 Z M 18.890625 -42.234375 "/></g></g></g><g fill="#000000" fill-opacity="1"><g transform="translate(106.503309, 235.88332)"><g><path d="M 62.875 -69.234375 C 60.96875 -67.222656 58.800781 -65.742188 56.375 -64.796875 C 66.75 -63.304688 74.632812 -59.625 80.03125 -53.75 C 85.425781 -47.875 88.125 -40.703125 88.125 -32.234375 C 88.125 -21.960938 83.992188 -13.648438 75.734375 -7.296875 C 67.484375 -0.953125 56.632812 2.21875 43.1875 2.21875 C 29.738281 2.21875 19.203125 -1.085938 11.578125 -7.703125 C 3.960938 -14.316406 0.15625 -23.660156 0.15625 -35.734375 C 0.15625 -36.367188 0.15625 -37.003906 0.15625 -37.640625 L 1.90625 -37.953125 C 4.019531 -22.179688 10.582031 -11.960938 21.59375 -7.296875 L 21.59375 -99.71875 C 21.382812 -102.582031 20.300781 -104.9375 18.34375 -106.78125 C 16.382812 -108.632812 14.023438 -109.5625 11.265625 -109.5625 L 9.359375 -109.5625 L 9.359375 -111.15625 L 36.046875 -111.15625 C 45.992188 -111.15625 53.957031 -108.878906 59.9375 -104.328125 C 65.925781 -99.773438 68.921875 -93.816406 68.921875 -86.453125 C 68.921875 -79.097656 66.90625 -73.359375 62.875 -69.234375 Z M 31.921875 -106.078125 L 31.921875 -4.453125 C 35.410156 -3.921875 39.429688 -3.65625 43.984375 -3.65625 C 54.148438 -3.65625 62.0625 -6.378906 67.71875 -11.828125 C 73.382812 -17.285156 76.21875 -24.351562 76.21875 -33.03125 C 76.21875 -37.6875 75.34375 -41.8125 73.59375 -45.40625 C 71.851562 -49.007812 69.660156 -51.816406 67.015625 -53.828125 C 60.023438 -59.234375 50.175781 -61.9375 37.46875 -61.9375 C 37.363281 -61.9375 37.3125 -61.9375 37.3125 -61.9375 L 37.15625 -63.359375 C 37.257812 -63.359375 37.3125 -63.359375 37.3125 -63.359375 C 42.707031 -63.359375 47.335938 -65.128906 51.203125 -68.671875 C 55.066406 -72.222656 57 -77.703125 57 -85.109375 C 57 -99.085938 49.328125 -106.078125 33.984375 -106.078125 Z M 31.921875 -106.078125 "/></g></g></g></svg>